# xmcd
#
# Track frame offsets:
#	183
#	12258
#	25110
#	41663
#	52218
#	61528
#	72703
#	82700
#	95005
#	106738
#	120893
#	142043
#	153390
#	164900
#	175963
#	189575
#	200028
#	210310
#	221850
#	232150
#
# Disc length: 3257 seconds
#
# Revision: 3
# Processed by: cddbd v1.4PL0 Copyright (c) Steve Scherf et al.
# Submitted via: CDmax 1.9
#
DISCID=220cb714
DTITLE=Johnny Winter - The Winter Scene
DYEAR=1990
DGENRE=Blues
TTITLE0=Livin' In the Blues
TTITLE1=Leavin' Blues
TTITLE2=Kind Hearted Woman
TTITLE3=Out of Sight
TTITLE4=Road Runner
TTITLE5=Gangster of Love
TTITLE6=By the Light of the Silvery Moon
TTITLE7=Leave My Woman Alone
TTITLE8=Bad News
TTITLE9=Low Down Gal of Mine
TTITLE10=Goin' Down Slow
TTITLE11=I Can't Believe You Want To Leave
TTITLE12=Avocado Green
TTITLE13=Oh My Darling
TTITLE14=Five After Four A. M.
TTITLE15=That's What Love Does
TTITLE16=Shed So Many Tears
TTITLE17=The Guy You Left Behind
TTITLE18=38-32-20
TTITLE19=Parchman Farm
EXTD=LABEL =Pair Records\nID =PCD-2-1273\nUPC =08882612732\nCOPYRIGHT =199
EXTD=0
EXTT0=
EXTT1=
EXTT2=
EXTT3=
EXTT4=
EXTT5=
EXTT6=
EXTT7=
EXTT8=
EXTT9=
EXTT10=
EXTT11=
EXTT12=
EXTT13=
EXTT14=
EXTT15=
EXTT16=
EXTT17=
EXTT18=
EXTT19=
PLAYORDER=
